# xmcd
#
# Track frame offsets:
#	150
#	13162
#	26945
#	37833
#	50384
#	60472
#	72095
#	85578
#	96177
#	113016
#	125094
#	136085
#	147573
#	158102
#	170887
#	176903
#	190060
#	201469
#	211492
#	221452
#	233798
#	243787
#	258019
#	269553
#	281813
#
# Disc length: 3867 seconds
#
# Revision: 1
# Processed by: cddbd v1.5.2PL0 Copyright (c) Steve Scherf et al.
# Submitted via: FairStars CD Ripper 1.90
#
DISCID=750f1919
DTITLE=Willie Nelson - Crazy
DYEAR=2013
DGENRE=Country
TTITLE0=Crazy
TTITLE1=Funny How Time Slips Away
TTITLE2=Hello Walls
TTITLE3=Mr. Record Man
TTITLE4=Touch Me
TTITLE5=Undo The Right
TTITLE6=Three Days
TTITLE7=Where My House Lives
TTITLE8=I Let My Mind Wander
TTITLE9=Our Chain Of Love (With Sheryl Collie)
TTITLE10=One Step Beyond
TTITLE11=Darkness On The Face Of The Earth
TTITLE12=The Part Where I Cry
TTITLE13=Wake Me When It's Over
TTITLE14=No Place For Me
TTITLE15=You'll Always Have Someone
TTITLE16=What A Way To Live
TTITLE17=There's Gonna Be Love
TTITLE18=Misery Mansion
TTITLE19=Willingly (With Sheryl Collie)
TTITLE20=I Didn't Sleep A Wink
TTITLE21=Rainy Day Blues
TTITLE22=December Day
TTITLE23=I Can't Find The Time
TTITLE24=You Wouldn't Cross The Street To Say Goodbye
EXTD=
EXTT0=
EXTT1=
EXTT2=
EXTT3=
EXTT4=
EXTT5=
EXTT6=
EXTT7=
EXTT8=
EXTT9=
EXTT10=
EXTT11=
EXTT12=
EXTT13=
EXTT14=
EXTT15=
EXTT16=
EXTT17=
EXTT18=
EXTT19=
EXTT20=
EXTT21=
EXTT22=
EXTT23=
EXTT24=
PLAYORDER=
